PathFileType	4	(X/Y/Z)	 s02c0401.trc
DataRate	CameraRate	NumFrames	NumMarkers	Units	OrigDataRate	OrigDataStartFrame	OrigNumFrames
200	200	4	50	mm	200	1	2000
Frame#	Time	racr			lacr			c7			jug			rlel			rdr			llel			ldr			s2			lic			ric			lasi			rasi			rpsi			lpsi			rgt			lgt			rth1			rth2			rth3			rth4			rlfc			rmfc			rsh1			rsh2			rsh3			rsh4			rlmal			rmmal			rtoe			rmt5			rmt1			lth1			lth2			lth4			lth3			llfc			lmfc			lsh1			lsh2			lsh3			lsh4			llmal			lmmal			lcal			ltoe			lmt5			SBIKE			LBIKE			RBIKE			
		X1	Y1	Z1	X2	Y2	Z2	X3	Y3	Z3	X4	Y4	Z4	X5	Y5	Z5	X6	Y6	Z6	X7	Y7	Z7	X8	Y8	Z8	X9	Y9	Z9	X10	Y10	Z10	X11	Y11	Z11	X12	Y12	Z12	X13	Y13	Z13	X14	Y14	Z14	X15	Y15	Z15	X16	Y16	Z16	X17	Y17	Z17	X18	Y18	Z18	X19	Y19	Z19	X20	Y20	Z20	X21	Y21	Z21	X22	Y22	Z22	X23	Y23	Z23	X24	Y24	Z24	X25	Y25	Z25	X26	Y26	Z26	X27	Y27	Z27	X28	Y28	Z28	X29	Y29	Z29	X30	Y30	Z30	X31	Y31	Z31	X32	Y32	Z32	X33	Y33	Z33	X34	Y34	Z34	X35	Y35	Z35	X36	Y36	Z36	X37	Y37	Z37	X38	Y38	Z38	X39	Y39	Z39	X40	Y40	Z40	X41	Y41	Z41	X42	Y42	Z42	X43	Y43	Z43	X44	Y44	Z44	X45	Y45	Z45	X46	Y46	Z46	X47	Y47	Z47	X48	Y48	Z48	X49	Y49	Z49	X50	Y50	Z50	
1	0.0050	471.137552	1321.858179	-137.336263	477.232736	1329.406147	-484.553446	478.773084	1365.638235	-316.701493	435.737873	1236.534500	-317.829289	591.580979	1074.222906	-122.097175	717.293801	883.406765	-123.278048	574.056305	1069.294786	-520.332204	707.291695	884.393346	-503.661244	2.537431	1093.660842	-316.612519	146.618222	1100.573544	-455.032337	129.430750	1115.121469	-178.876282	194.887192	1070.539242	-430.726150	179.435027	1084.606057	-197.834994	17.401728	1134.422384	-275.865565	23.475461	1137.211718	-357.395691	113.713600	1035.393006	-132.040954	95.195794	1001.060179	-486.851701	199.813975	1013.976568	-128.043370	287.819690	1008.255604	-134.555331	361.364070	971.552647	-108.942700	296.423347	1030.933875	-163.748548	486.069631	887.968645	-138.798641	482.897752	869.178947	-252.589626	463.287296	776.520099	-126.059932	437.413356	694.979457	-146.861520	378.834153	629.968518	-141.942487	448.134482	690.956155	-184.693197	308.651576	532.711880	-149.650060	316.881056	552.768367	-229.307917	518.260584	475.436492	-185.885019	409.486316	458.578209	-128.896317	436.907175	473.078449	-236.240759	194.047272	900.522843	-506.282934	258.314773	842.349276	-506.976691	286.858608	859.620359	-490.350428	283.018654	756.444906	-507.625934	333.649861	668.314685	-487.847904	341.833048	637.858603	-386.187892	284.836155	575.145671	-506.077670	260.025794	493.727223	-489.347427	194.320315	431.853412	-488.656555	280.046796	486.018912	-454.517460	128.579872	351.139699	-469.928408	146.818350	339.893382	-393.515924	51.778775	336.811015	-428.671760	286.609619	172.596296	-441.999294	183.294478	209.653686	-499.767446	-162.699009	860.804783	-309.416689	37.522241	86.459913	-514.398506	34.517665	82.483707	-114.126619	
2	0.0100	471.106123	1321.833155	-137.313916	477.213128	1329.388216	-484.561926	478.769348	1365.621653	-316.691670	435.717491	1236.532728	-317.819318	591.566124	1074.228923	-122.108467	717.294587	883.420058	-123.272904	574.025715	1069.272536	-520.316225	707.290141	884.377293	-503.664217	2.537773	1093.680501	-316.617564	146.586697	1100.580406	-455.042840	129.435803	1115.123547	-178.877549	194.867378	1070.507221	-430.719278	179.450391	1084.626436	-197.847971	17.403419	1134.417154	-275.860447	23.440590	1137.236901	-357.417934	113.723147	1035.387583	-132.057563	95.154432	1001.062862	-486.858756	199.844865	1013.961609	-128.058028	287.816002	1008.259739	-134.545960	361.381212	971.556641	-108.945468	296.440491	1030.938659	-163.747103	486.078375	887.938392	-138.783514	482.886264	869.190511	-252.569521	463.290294	776.530533	-126.058773	437.399876	694.968583	-146.877186	378.810222	629.967357	-141.942049	448.127221	690.970592	-184.675108	308.641305	532.727088	-149.659355	316.876803	552.762612	-229.333811	518.239435	475.448341	-185.888125	409.480338	458.606539	-128.905464	436.895203	473.109838	-236.261547	194.029218	900.490644	-506.312379	258.273697	842.339217	-506.991023	286.828878	859.594451	-490.349630	282.975622	756.427132	-507.655382	333.598979	668.331868	-487.837809	341.803094	637.848118	-386.219777	284.796107	575.142845	-506.073942	259.998418	493.708648	-489.353519	194.310717	431.829866	-488.672324	280.030481	486.011476	-454.526962	128.566520	351.121120	-469.938572	146.783939	339.909131	-393.509611	51.777919	336.795384	-428.680837	286.620436	172.597002	-442.024631	183.310755	209.659588	-499.768906	-162.550705	860.893440	-309.777901	37.526162	86.452250	-514.425925	34.517529	82.496197	-114.112255	
3	0.0150	471.088526	1321.828718	-137.298903	477.204711	1329.375940	-484.574112	478.766173	1365.617990	-316.701928	435.716608	1236.546968	-317.812906	591.528937	1074.223669	-122.131826	717.295499	883.415066	-123.289103	574.014748	1069.271354	-520.307300	707.285889	884.360212	-503.666942	2.516657	1093.687181	-316.602829	146.567527	1100.593569	-455.038725	129.443098	1115.137470	-178.880803	194.830703	1070.518105	-430.732335	179.466169	1084.627446	-197.876472	17.390969	1134.437370	-275.840641	23.456070	1137.252275	-357.437071	113.734754	1035.390034	-132.050502	95.121186	1001.062309	-486.839582	199.834765	1013.963132	-128.052166	287.818154	1008.250207	-134.536032	361.378731	971.554148	-108.933958	296.454017	1030.922593	-163.749679	486.083974	887.936323	-138.771773	482.886862	869.177484	-252.571031	463.295789	776.520411	-126.043609	437.379053	694.951768	-146.864227	378.774826	629.968105	-141.943208	448.118850	690.972697	-184.658997	308.607814	532.729411	-149.656243	316.840634	552.770022	-229.328388	518.205018	475.479139	-185.887105	409.455316	458.622954	-128.890795	436.861183	473.117644	-236.263320	193.991448	900.479279	-506.309086	258.242272	842.328703	-507.008897	286.791834	859.593596	-490.373789	282.937575	756.412641	-507.660358	333.575614	668.324065	-487.847307	341.777937	637.864592	-386.210062	284.770880	575.140855	-506.096754	259.986403	493.701570	-489.367132	194.306333	431.824375	-488.669882	280.026718	486.006651	-454.529897	128.582963	351.111354	-469.941775	146.791639	339.892867	-393.520895	51.788614	336.785993	-428.687975	286.635542	172.589339	-442.021744	183.331918	209.653166	-499.768847	-162.551714	860.829119	-309.832463	37.550920	86.403178	-514.454294	34.522911	82.488905	-114.100680	
4	0.0200	471.079235	1321.820014	-137.303355	477.199608	1329.350524	-484.578882	478.773437	1365.588716	-316.705340	435.696854	1236.512739	-317.789474	591.806643	1074.043618	-122.467770	717.299107	883.425981	-123.294123	574.147263	1069.331657	-519.941075	707.273969	884.361561	-503.671753	2.448565	1093.787930	-317.137116	146.585087	1100.349943	-455.084897	129.433014	1115.141299	-178.886058	194.795228	1070.536840	-430.757449	179.467584	1084.643534	-197.902932	17.798139	1134.357843	-275.974492	25.484698	1138.245347	-361.980084	113.734358	1035.392905	-132.048806	95.082193	1001.217137	-486.817318	199.839175	1013.954973	-128.067272	287.813989	1008.242629	-134.533938	361.379159	971.534782	-108.929779	296.804775	1030.598958	-163.625319	486.180921	887.877810	-138.844478	482.888727	869.163534	-252.572283	463.266218	776.515596	-126.055141	435.157081	692.770258	-148.182010	378.770907	629.966448	-141.950325	447.214176	690.508042	-185.008570	308.309666	533.406569	-149.120467	316.664394	552.765422	-229.660420	518.265365	475.442855	-185.995491	409.427886	458.645112	-128.905270	436.821166	473.137915	-236.243343	193.949630	900.481731	-506.309934	258.252565	842.037608	-506.677338	286.763360	859.920975	-490.666209	282.796665	756.287201	-507.688666	333.736643	668.183424	-488.004007	341.355499	638.042106	-386.007148	284.761150	575.166974	-506.115413	260.106159	493.714427	-489.667533	194.329099	431.809665	-488.697430	280.047728	485.948676	-454.480104	128.624953	351.081329	-469.956973	146.829259	339.881467	-393.510982	51.829620	336.784016	-428.695519	286.658456	172.551568	-442.022898	183.355273	209.618962	-499.778722	-162.522971	860.826641	-309.851582	37.526323	86.437566	-514.421773	34.528146	82.476145	-114.129139	
